{
	"asset":{
		"generator":"Khronos glTF Blender I/O v3.6.27",
		"version":"2.0"
	},
	"scene":0,
	"scenes":[
		{
			"name":"Scene",
			"nodes":[
				0
			]
		}
	],
	"nodes":[
		{
			"mesh":0,
			"name":"Cylinder"
		}
	],
	"meshes":[
		{
			"name":"Cylinder",
			"primitives":[
				{
					"attributes":{
						"POSITION":0,
						"NORMAL":1,
						"TEXCOORD_0":2
					},
					"indices":3
				}
			]
		}
	],
	"accessors":[
		{
			"bufferView":0,
			"componentType":5126,
			"count":722,
			"max":[
				0.49999985098838806,
				2,
				0.5
			],
			"min":[
				-0.5,
				0,
				-0.5
			],
			"type":"VEC3"
		},
		{
			"bufferView":1,
			"componentType":5126,
			"count":722,
			"type":"VEC3"
		},
		{
			"bufferView":2,
			"componentType":5126,
			"count":722,
			"type":"VEC2"
		},
		{
			"bufferView":3,
			"componentType":5123,
			"count":3252,
			"type":"SCALAR"
		}
	],
	"bufferViews":[
		{
			"buffer":0,
			"byteLength":8664,
			"byteOffset":0,
			"target":34962
		},
		{
			"buffer":0,
			"byteLength":8664,
			"byteOffset":8664,
			"target":34962
		},
		{
			"buffer":0,
			"byteLength":5776,
			"byteOffset":17328,
			"target":34962
		},
		{
			"buffer":0,
			"byteLength":6504,
			"byteOffset":23104,
			"target":34963
		}
	],
	"buffers":[
		{
			"byteLength":29608,
			"uri":"capsule.bin"
		}
	]
}
